<mxfile host="Electron" modified="2023-06-23T14:19:20.376Z" agent="Mozilla/5.0 (Windows NT 10.0; Win64; x64) AppleWebKit/537.36 (KHTML, like Gecko) draw.io/21.2.8 Chrome/112.0.5615.165 Electron/24.2.0 Safari/537.36" etag="5nYEHysrIEvAcFvGIjKl" version="21.2.8" type="device">
  <diagram name="Page-1" id="2T3P0SBDaubpBiyCmZIc">
    <mxGraphModel dx="780" dy="496" grid="1" gridSize="10" guides="1" tooltips="1" connect="1" arrows="1" fold="1" page="1" pageScale="1" pageWidth="827" pageHeight="1169" math="0" shadow="0">
      <root>
        <mxCell id="0" />
        <mxCell id="1" parent="0" />
        <mxCell id="m8BCpijGXHbCL5uUybM--2" value="E1:partya" style="html=1;dashed=0;whiteSpace=wrap;" parent="1" vertex="1">
          <mxGeometry x="170" y="210" width="100" height="50" as="geometry" />
        </mxCell>
        <mxCell id="m8BCpijGXHbCL5uUybM--7" value="&amp;nbsp; &amp;nbsp; &amp;nbsp; 1 &amp;nbsp; &amp;nbsp; &amp;nbsp; &amp;nbsp; &amp;nbsp; &amp;nbsp; mange party" style="shape=ellipse;html=1;dashed=0;whiteSpace=wrap;aspect=fixed;perimeter=ellipsePerimeter;" parent="1" vertex="1">
          <mxGeometry x="400" y="320" width="100" height="100" as="geometry" />
        </mxCell>
        <mxCell id="m8BCpijGXHbCL5uUybM--15" value="E2:police" style="html=1;dashed=0;whiteSpace=wrap;" parent="1" vertex="1">
          <mxGeometry x="314" y="150" width="100" height="50" as="geometry" />
        </mxCell>
        <mxCell id="m8BCpijGXHbCL5uUybM--18" value="E3:admin" style="html=1;dashed=0;whiteSpace=wrap;" parent="1" vertex="1">
          <mxGeometry x="500" y="160" width="150" height="50" as="geometry" />
        </mxCell>
        <mxCell id="m8BCpijGXHbCL5uUybM--28" value="E4:agent" style="html=1;dashed=0;whiteSpace=wrap;" parent="1" vertex="1">
          <mxGeometry x="180" y="470" width="140" height="50" as="geometry" />
        </mxCell>
        <mxCell id="m8BCpijGXHbCL5uUybM--29" value="E6:Artist" style="html=1;dashed=0;whiteSpace=wrap;" parent="1" vertex="1">
          <mxGeometry x="500" y="490" width="126" height="40" as="geometry" />
        </mxCell>
        <mxCell id="m8BCpijGXHbCL5uUybM--30" value="E5:ADP" style="html=1;dashed=0;whiteSpace=wrap;" parent="1" vertex="1">
          <mxGeometry x="650" y="430" width="100" height="50" as="geometry" />
        </mxCell>
        <mxCell id="IX7VmK5pkGyeillGERVm-2" value="C3 פרטי ההופעות&lt;br&gt;&amp;nbsp;ואזורים ומסיבות" style="edgeLabel;html=1;align=center;verticalAlign=middle;resizable=0;points=[];" parent="1" vertex="1" connectable="0">
          <mxGeometry x="260.0039738899182" y="439.9991286395641" as="geometry">
            <mxPoint x="8" y="12" as="offset" />
          </mxGeometry>
        </mxCell>
        <mxCell id="IX7VmK5pkGyeillGERVm-3" value="" style="endArrow=open;endFill=1;endSize=12;html=1;rounded=0;entryX=0.033;entryY=0.683;entryDx=0;entryDy=0;entryPerimeter=0;" parent="1" target="m8BCpijGXHbCL5uUybM--7" edge="1">
          <mxGeometry width="160" relative="1" as="geometry">
            <mxPoint x="220" y="470" as="sourcePoint" />
            <mxPoint x="380" y="470" as="targetPoint" />
            <Array as="points" />
          </mxGeometry>
        </mxCell>
        <mxCell id="IX7VmK5pkGyeillGERVm-4" value="F2:פרטי האומנים&amp;nbsp;" style="edgeLabel;html=1;align=center;verticalAlign=middle;resizable=0;points=[];" parent="1" vertex="1" connectable="0">
          <mxGeometry x="469.99622019915" y="460.0033642197621" as="geometry">
            <mxPoint x="-107" y="-32" as="offset" />
          </mxGeometry>
        </mxCell>
        <mxCell id="IX7VmK5pkGyeillGERVm-5" value="" style="endArrow=open;endFill=1;endSize=12;html=1;rounded=0;" parent="1" target="m8BCpijGXHbCL5uUybM--7" edge="1">
          <mxGeometry width="160" relative="1" as="geometry">
            <mxPoint x="300" y="470" as="sourcePoint" />
            <mxPoint x="460" y="470" as="targetPoint" />
          </mxGeometry>
        </mxCell>
        <mxCell id="IX7VmK5pkGyeillGERVm-9" value="F20 פרטי החלטה ב" style="endArrow=open;endFill=1;endSize=12;html=1;rounded=0;entryX=1;entryY=1;entryDx=0;entryDy=0;exitX=0.894;exitY=-0.075;exitDx=0;exitDy=0;exitPerimeter=0;" parent="1" source="m8BCpijGXHbCL5uUybM--29" target="m8BCpijGXHbCL5uUybM--7" edge="1">
          <mxGeometry x="0.0022" width="160" relative="1" as="geometry">
            <mxPoint x="470" y="510" as="sourcePoint" />
            <mxPoint x="630" y="510" as="targetPoint" />
            <Array as="points">
              <mxPoint x="540" y="440" />
            </Array>
            <mxPoint as="offset" />
          </mxGeometry>
        </mxCell>
        <mxCell id="IX7VmK5pkGyeillGERVm-14" value="F19 פרטי הדווח&amp;nbsp;" style="endArrow=open;endFill=1;endSize=12;html=1;rounded=0;entryX=0.25;entryY=0;entryDx=0;entryDy=0;" parent="1" target="m8BCpijGXHbCL5uUybM--29" edge="1">
          <mxGeometry width="160" relative="1" as="geometry">
            <mxPoint x="470" y="422" as="sourcePoint" />
            <mxPoint x="600" y="510" as="targetPoint" />
            <Array as="points" />
          </mxGeometry>
        </mxCell>
        <mxCell id="IX7VmK5pkGyeillGERVm-15" value="C16 :פרטי המסיבות, האזורים וההופעות" style="edgeLabel;html=1;align=center;verticalAlign=middle;resizable=0;points=[];" parent="1" vertex="1" connectable="0">
          <mxGeometry x="319.99553345410936" y="480.0003605800729" as="geometry">
            <mxPoint x="-71" y="-156" as="offset" />
          </mxGeometry>
        </mxCell>
        <mxCell id="IX7VmK5pkGyeillGERVm-16" value="" style="endArrow=open;endFill=1;endSize=12;html=1;rounded=0;entryX=0.353;entryY=1.1;entryDx=0;entryDy=0;entryPerimeter=0;" parent="1" target="m8BCpijGXHbCL5uUybM--2" edge="1">
          <mxGeometry width="160" relative="1" as="geometry">
            <mxPoint x="400" y="360" as="sourcePoint" />
            <mxPoint x="560" y="360" as="targetPoint" />
          </mxGeometry>
        </mxCell>
        <mxCell id="IX7VmK5pkGyeillGERVm-17" value="" style="endArrow=open;endFill=1;endSize=12;html=1;rounded=0;" parent="1" target="m8BCpijGXHbCL5uUybM--7" edge="1">
          <mxGeometry width="160" relative="1" as="geometry">
            <mxPoint x="260" y="260" as="sourcePoint" />
            <mxPoint x="420" y="260" as="targetPoint" />
          </mxGeometry>
        </mxCell>
        <mxCell id="IX7VmK5pkGyeillGERVm-18" value="F13 :פרטי ההזמנות שאשרו&amp;nbsp;" style="text;html=1;strokeColor=none;fillColor=none;align=center;verticalAlign=middle;whiteSpace=wrap;rounded=0;" parent="1" vertex="1">
          <mxGeometry x="290" y="280" width="100" height="30" as="geometry" />
        </mxCell>
        <mxCell id="IX7VmK5pkGyeillGERVm-19" value="" style="endArrow=open;endFill=1;endSize=12;html=1;rounded=0;entryX=0.353;entryY=0.01;entryDx=0;entryDy=0;entryPerimeter=0;" parent="1" target="m8BCpijGXHbCL5uUybM--7" edge="1">
          <mxGeometry width="160" relative="1" as="geometry">
            <mxPoint x="370" y="200" as="sourcePoint" />
            <mxPoint x="530" y="200" as="targetPoint" />
          </mxGeometry>
        </mxCell>
        <mxCell id="IX7VmK5pkGyeillGERVm-20" value="F1 הנחיות" style="text;html=1;strokeColor=none;fillColor=none;align=center;verticalAlign=middle;whiteSpace=wrap;rounded=0;" parent="1" vertex="1">
          <mxGeometry x="354" y="230" width="60" height="30" as="geometry" />
        </mxCell>
        <mxCell id="IX7VmK5pkGyeillGERVm-21" value="C21:פרטי החורגים" style="edgeLabel;html=1;align=center;verticalAlign=middle;resizable=0;points=[];" parent="1" vertex="1" connectable="0">
          <mxGeometry x="477.0005191209707" y="269.99972659688774" as="geometry">
            <mxPoint x="3" y="-19" as="offset" />
          </mxGeometry>
        </mxCell>
        <mxCell id="IX7VmK5pkGyeillGERVm-22" value="" style="endArrow=open;endFill=1;endSize=12;html=1;rounded=0;entryX=0.089;entryY=1.047;entryDx=0;entryDy=0;entryPerimeter=0;" parent="1" source="m8BCpijGXHbCL5uUybM--7" target="m8BCpijGXHbCL5uUybM--18" edge="1">
          <mxGeometry width="160" relative="1" as="geometry">
            <mxPoint x="460" y="320" as="sourcePoint" />
            <mxPoint x="620" y="320" as="targetPoint" />
          </mxGeometry>
        </mxCell>
        <mxCell id="IX7VmK5pkGyeillGERVm-23" value="C22 :החלטה&lt;br&gt;&amp;nbsp;לגבי חריגה&amp;nbsp;" style="edgeLabel;html=1;align=center;verticalAlign=middle;resizable=0;points=[];" parent="1" vertex="1" connectable="0">
          <mxGeometry x="550.0018122187216" y="520.0022045122679" as="geometry">
            <mxPoint x="-24" y="-246" as="offset" />
          </mxGeometry>
        </mxCell>
        <mxCell id="IX7VmK5pkGyeillGERVm-24" value="" style="endArrow=open;endFill=1;endSize=12;html=1;rounded=0;entryX=0.98;entryY=0.223;entryDx=0;entryDy=0;entryPerimeter=0;" parent="1" target="m8BCpijGXHbCL5uUybM--7" edge="1">
          <mxGeometry width="160" relative="1" as="geometry">
            <mxPoint x="540" y="210" as="sourcePoint" />
            <mxPoint x="700" y="210" as="targetPoint" />
          </mxGeometry>
        </mxCell>
        <mxCell id="IX7VmK5pkGyeillGERVm-25" value="C2 פרטי ההופעות ואזורים &lt;br&gt;ומסיבות" style="edgeLabel;html=1;align=center;verticalAlign=middle;resizable=0;points=[];" parent="1" vertex="1" connectable="0">
          <mxGeometry x="680.0033328148191" y="379.9998444457407" as="geometry">
            <mxPoint x="-94" y="-143" as="offset" />
          </mxGeometry>
        </mxCell>
        <mxCell id="IX7VmK5pkGyeillGERVm-26" value="" style="endArrow=open;endFill=1;endSize=12;html=1;rounded=0;entryX=1;entryY=0.323;entryDx=0;entryDy=0;entryPerimeter=0;" parent="1" target="m8BCpijGXHbCL5uUybM--7" edge="1">
          <mxGeometry width="160" relative="1" as="geometry">
            <mxPoint x="600" y="210" as="sourcePoint" />
            <mxPoint x="590" y="330" as="targetPoint" />
            <Array as="points">
              <mxPoint x="550" y="290" />
            </Array>
          </mxGeometry>
        </mxCell>
        <mxCell id="IX7VmK5pkGyeillGERVm-27" value="F26 סיבות ההפעות שנדחו" style="edgeLabel;html=1;align=center;verticalAlign=middle;resizable=0;points=[];" parent="1" vertex="1" connectable="0">
          <mxGeometry x="650.0008608203946" y="279.99953268667855" as="geometry">
            <mxPoint x="-36" y="14" as="offset" />
          </mxGeometry>
        </mxCell>
        <mxCell id="IX7VmK5pkGyeillGERVm-29" value="" style="endArrow=open;endFill=1;endSize=12;html=1;rounded=0;entryX=1;entryY=0.763;entryDx=0;entryDy=0;entryPerimeter=0;" parent="1" target="m8BCpijGXHbCL5uUybM--7" edge="1">
          <mxGeometry width="160" relative="1" as="geometry">
            <mxPoint x="650" y="450" as="sourcePoint" />
            <mxPoint x="810" y="450" as="targetPoint" />
          </mxGeometry>
        </mxCell>
        <mxCell id="IX7VmK5pkGyeillGERVm-30" value="F3:רמת הפופולריות&amp;nbsp;" style="text;html=1;strokeColor=none;fillColor=none;align=center;verticalAlign=middle;whiteSpace=wrap;rounded=0;" parent="1" vertex="1">
          <mxGeometry x="550" y="400" width="60" height="30" as="geometry" />
        </mxCell>
        <mxCell id="IX7VmK5pkGyeillGERVm-31" value="" style="endArrow=open;endFill=1;endSize=12;html=1;rounded=0;entryX=1;entryY=1;entryDx=0;entryDy=0;" parent="1" target="m8BCpijGXHbCL5uUybM--18" edge="1">
          <mxGeometry width="160" relative="1" as="geometry">
            <mxPoint x="500" y="360" as="sourcePoint" />
            <mxPoint x="660" y="360" as="targetPoint" />
            <Array as="points">
              <mxPoint x="600" y="300" />
            </Array>
          </mxGeometry>
        </mxCell>
        <mxCell id="o5p4Kuq5FhBUwYPiX3nY-1" value="T" style="triangle;whiteSpace=wrap;html=1;direction=north;" parent="1" vertex="1">
          <mxGeometry x="130" y="350" width="80" height="60" as="geometry" />
        </mxCell>
        <mxCell id="o5p4Kuq5FhBUwYPiX3nY-2" value="אחת לחודש." style="endArrow=classic;html=1;rounded=0;entryX=0;entryY=0.5;entryDx=0;entryDy=0;" parent="1" source="o5p4Kuq5FhBUwYPiX3nY-1" target="m8BCpijGXHbCL5uUybM--7" edge="1">
          <mxGeometry width="50" height="50" relative="1" as="geometry">
            <mxPoint x="210" y="380" as="sourcePoint" />
            <mxPoint x="260" y="330" as="targetPoint" />
          </mxGeometry>
        </mxCell>
        <mxCell id="o5p4Kuq5FhBUwYPiX3nY-3" value="מידי יום בשעה 22:00" style="endArrow=classic;html=1;rounded=0;exitX=0.106;exitY=0.933;exitDx=0;exitDy=0;exitPerimeter=0;" parent="1" source="o5p4Kuq5FhBUwYPiX3nY-1" edge="1">
          <mxGeometry width="50" height="50" relative="1" as="geometry">
            <mxPoint x="210" y="410" as="sourcePoint" />
            <mxPoint x="390" y="380" as="targetPoint" />
          </mxGeometry>
        </mxCell>
        <mxCell id="a-XREUcK39BeMWOPyGRb-3" value="&#xa;&lt;span style=&quot;color: rgb(0, 0, 0); font-family: Helvetica; font-size: 11px; font-style: normal; font-variant-ligatures: normal; font-variant-caps: normal; font-weight: 400; letter-spacing: normal; orphans: 2; text-align: center; text-indent: 0px; text-transform: none; widows: 2; word-spacing: 0px; -webkit-text-stroke-width: 0px; background-color: rgb(255, 255, 255); text-decoration-thickness: initial; text-decoration-style: initial; text-decoration-color: initial; float: none; display: inline !important;&quot;&gt;F22 פרטי הופעות&lt;/span&gt;&#xa;&#xa;" style="endArrow=open;endFill=1;endSize=12;html=1;rounded=0;entryX=1;entryY=0.5;entryDx=0;entryDy=0;" parent="1" target="m8BCpijGXHbCL5uUybM--28" edge="1">
          <mxGeometry width="160" relative="1" as="geometry">
            <mxPoint x="420" y="410" as="sourcePoint" />
            <mxPoint x="580" y="410" as="targetPoint" />
            <Array as="points">
              <mxPoint x="400" y="460" />
            </Array>
          </mxGeometry>
        </mxCell>
        <mxCell id="a-XREUcK39BeMWOPyGRb-4" value="F21 תחום תארכים" style="endArrow=open;endFill=1;endSize=12;html=1;rounded=0;exitX=1;exitY=0.75;exitDx=0;exitDy=0;" parent="1" source="m8BCpijGXHbCL5uUybM--28" target="m8BCpijGXHbCL5uUybM--7" edge="1">
          <mxGeometry width="160" relative="1" as="geometry">
            <mxPoint x="160" y="560" as="sourcePoint" />
            <mxPoint x="320" y="560" as="targetPoint" />
            <Array as="points">
              <mxPoint x="430" y="500" />
            </Array>
          </mxGeometry>
        </mxCell>
        <mxCell id="a-XREUcK39BeMWOPyGRb-5" value="F23 קריטריונים הדוייח&amp;nbsp;" style="endArrow=open;endFill=1;endSize=12;html=1;rounded=0;exitX=0.052;exitY=0.02;exitDx=0;exitDy=0;exitPerimeter=0;" parent="1" source="m8BCpijGXHbCL5uUybM--28" edge="1">
          <mxGeometry x="0.0008" width="160" relative="1" as="geometry">
            <mxPoint x="70" y="430" as="sourcePoint" />
            <mxPoint x="390" y="390" as="targetPoint" />
            <Array as="points">
              <mxPoint x="80" y="440" />
            </Array>
            <mxPoint as="offset" />
          </mxGeometry>
        </mxCell>
      </root>
    </mxGraphModel>
  </diagram>
</mxfile>
